# xmcd
#
# Track frame offsets:
#	225
#	14891
#	27761
#	47677
#	62115
#	81670
#	97644
#	109601
#	123455
#	138252
#	150702
#	168203
#
# Disc length: 2540 seconds
#
# Revision: 1
# Processed by: cddbd v1.5.2PL0 Copyright (c) Steve Scherf et al.
# Submitted via: audiograbber 1.83.01
#
DISCID=9709e90c
DTITLE=Prairie Oyster - One Kiss
DYEAR=2006
DGENRE=Country Swing
TTITLE0=That's My Home
TTITLE1=Too Bad For Me
TTITLE2=One Kiss
TTITLE3=Open Up Your Heart
TTITLE4=Long and Lonesome Old Freight Train
TTITLE5=I Threw It All Away
TTITLE6=Sweet, Sweet Girl To Me
TTITLE7=Drown Your Sorrows
TTITLE8=Mona Lisa
TTITLE9=I Wish I'd Never Known Love
TTITLE10=Short Time Here
TTITLE11=Heaven or Baton Rouge
EXTD=
EXTT0=
EXTT1=
EXTT2=
EXTT3=
EXTT4=
EXTT5=
EXTT6=
EXTT7=
EXTT8=
EXTT9=
EXTT10=
EXTT11=
PLAYORDER=
